<mxfile host="Electron" modified="2024-03-15T19:16:55.141Z" agent="Mozilla/5.0 (Windows NT 10.0; Win64; x64) AppleWebKit/537.36 (KHTML, like Gecko) draw.io/23.1.5 Chrome/120.0.6099.109 Electron/28.1.0 Safari/537.36" etag="TA-ijpsuPVQvDXLjzser" version="23.1.5" type="device">
  <diagram name="PÃ¡gina-1" id="J8iMV7ploGFS5Vp8M5Ye">
    <mxGraphModel dx="2440" dy="1303" grid="0" gridSize="10" guides="1" tooltips="1" connect="1" arrows="1" fold="1" page="0" pageScale="1" pageWidth="1169" pageHeight="827" math="0" shadow="0">
      <root>
        <mxCell id="0" />
        <mxCell id="1" parent="0" />
        <mxCell id="iYEI_Q_aIxPxglOWvmyR-1" value="MiServidor" style="swimlane;fontStyle=1;childLayout=stackLayout;horizontal=1;startSize=26;fillColor=#D60072;horizontalStack=0;resizeParent=1;resizeParentMax=0;resizeLast=0;collapsible=1;marginBottom=0;whiteSpace=wrap;html=1;points=[[0,0,0,0,0],[0,0.25,0,0,0],[0,0.5,0,0,0],[0,0.75,0,0,0],[0,1,0,0,0],[0.25,0,0,0,0],[0.25,1,0,0,0],[0.5,0,0,0,0],[0.5,1,0,0,0],[0.75,0,0,0,0],[0.75,1,0,0,0],[1,0,0,0,0],[1,0.25,0,0,0],[1,0.5,0,0,0],[1,0.75,0,0,0],[1,1,0,0,0]];fontColor=#ffffff;strokeColor=#000000;fontSize=15;strokeWidth=2;swimlaneFillColor=#F7FCFC;fontFamily=Verdana;" vertex="1" parent="1">
          <mxGeometry x="-1107" y="-561" width="392" height="140" as="geometry" />
        </mxCell>
        <mxCell id="iYEI_Q_aIxPxglOWvmyR-2" value="&lt;b&gt;host: &lt;/b&gt;String" style="text;strokeColor=none;fillColor=none;align=left;verticalAlign=top;spacingLeft=4;spacingRight=4;overflow=hidden;rotatable=0;points=[[0,0.5],[1,0.5]];portConstraint=eastwest;whiteSpace=wrap;html=1;fontColor=#000000;fontSize=15;fontFamily=Verdana;" vertex="1" parent="iYEI_Q_aIxPxglOWvmyR-1">
          <mxGeometry y="26" width="392" height="26" as="geometry" />
        </mxCell>
        <mxCell id="iYEI_Q_aIxPxglOWvmyR-3" value="&lt;b&gt;puerto: &lt;/b&gt;int" style="text;strokeColor=none;fillColor=none;align=left;verticalAlign=top;spacingLeft=4;spacingRight=4;overflow=hidden;rotatable=0;points=[[0,0.5],[1,0.5]];portConstraint=eastwest;whiteSpace=wrap;html=1;fontColor=#000000;fontSize=15;fontFamily=Verdana;" vertex="1" parent="iYEI_Q_aIxPxglOWvmyR-1">
          <mxGeometry y="52" width="392" height="26" as="geometry" />
        </mxCell>
        <mxCell id="iYEI_Q_aIxPxglOWvmyR-5" value="" style="line;strokeWidth=3;fillColor=none;align=left;verticalAlign=middle;spacingTop=-1;spacingLeft=3;spacingRight=3;rotatable=0;labelPosition=right;points=[];portConstraint=eastwest;strokeColor=inherit;fontColor=#000000;fontSize=15;fontFamily=Verdana;" vertex="1" parent="iYEI_Q_aIxPxglOWvmyR-1">
          <mxGeometry y="78" width="392" height="2" as="geometry" />
        </mxCell>
        <mxCell id="iYEI_Q_aIxPxglOWvmyR-6" value="&lt;b&gt;descargar&lt;/b&gt;(String url)" style="text;strokeColor=none;fillColor=none;align=left;verticalAlign=top;spacingLeft=4;spacingRight=4;overflow=hidden;rotatable=0;points=[[0,0.5],[1,0.5]];portConstraint=eastwest;whiteSpace=wrap;html=1;fontColor=#000000;fontSize=15;fontFamily=Verdana;" vertex="1" parent="iYEI_Q_aIxPxglOWvmyR-1">
          <mxGeometry y="80" width="392" height="30" as="geometry" />
        </mxCell>
        <mxCell id="iYEI_Q_aIxPxglOWvmyR-18" value="&lt;b&gt;mi_servidor&lt;/b&gt;(int puerto, String host)" style="text;strokeColor=none;fillColor=none;align=left;verticalAlign=top;spacingLeft=4;spacingRight=4;overflow=hidden;rotatable=0;points=[[0,0.5],[1,0.5]];portConstraint=eastwest;whiteSpace=wrap;html=1;fontColor=#000000;fontSize=15;fontFamily=Verdana;" vertex="1" parent="iYEI_Q_aIxPxglOWvmyR-1">
          <mxGeometry y="110" width="392" height="30" as="geometry" />
        </mxCell>
        <mxCell id="iYEI_Q_aIxPxglOWvmyR-7" value="ProxyMiServidor" style="swimlane;fontStyle=1;childLayout=stackLayout;horizontal=1;startSize=26;fillColor=#D60072;horizontalStack=0;resizeParent=1;resizeParentMax=0;resizeLast=0;collapsible=1;marginBottom=0;whiteSpace=wrap;html=1;points=[[0,0,0,0,0],[0,0.25,0,0,0],[0,0.5,0,0,0],[0,0.75,0,0,0],[0,1,0,0,0],[0.25,0,0,0,0],[0.25,1,0,0,0],[0.5,0,0,0,0],[0.5,1,0,0,0],[0.75,0,0,0,0],[0.75,1,0,0,0],[1,0,0,0,0],[1,0.25,0,0,0],[1,0.5,0,0,0],[1,0.75,0,0,0],[1,1,0,0,0]];fontColor=#ffffff;strokeColor=#000000;fontSize=15;strokeWidth=2;swimlaneFillColor=#F7FCFC;fontFamily=Verdana;" vertex="1" parent="1">
          <mxGeometry x="-1585" y="-589" width="392" height="196" as="geometry" />
        </mxCell>
        <mxCell id="iYEI_Q_aIxPxglOWvmyR-8" value="&lt;b&gt;host:&amp;nbsp;&lt;/b&gt;String" style="text;strokeColor=none;fillColor=none;align=left;verticalAlign=top;spacingLeft=4;spacingRight=4;overflow=hidden;rotatable=0;points=[[0,0.5],[1,0.5]];portConstraint=eastwest;whiteSpace=wrap;html=1;fontColor=#000000;fontSize=15;fontFamily=Verdana;" vertex="1" parent="iYEI_Q_aIxPxglOWvmyR-7">
          <mxGeometry y="26" width="392" height="26" as="geometry" />
        </mxCell>
        <mxCell id="iYEI_Q_aIxPxglOWvmyR-9" value="&lt;b&gt;miServidor: &lt;/b&gt;MiServidor" style="text;strokeColor=none;fillColor=none;align=left;verticalAlign=top;spacingLeft=4;spacingRight=4;overflow=hidden;rotatable=0;points=[[0,0.5],[1,0.5]];portConstraint=eastwest;whiteSpace=wrap;html=1;fontColor=#000000;fontSize=15;fontFamily=Verdana;" vertex="1" parent="iYEI_Q_aIxPxglOWvmyR-7">
          <mxGeometry y="52" width="392" height="26" as="geometry" />
        </mxCell>
        <object label="&lt;b&gt;puerto:&amp;nbsp;&lt;/b&gt;int" Total="" id="iYEI_Q_aIxPxglOWvmyR-10">
          <mxCell style="text;strokeColor=none;fillColor=none;align=left;verticalAlign=top;spacingLeft=4;spacingRight=4;overflow=hidden;rotatable=0;points=[[0,0.5],[1,0.5]];portConstraint=eastwest;whiteSpace=wrap;html=1;fontColor=#000000;fontSize=15;fontFamily=Verdana;" vertex="1" parent="iYEI_Q_aIxPxglOWvmyR-7">
            <mxGeometry y="78" width="392" height="26" as="geometry" />
          </mxCell>
        </object>
        <mxCell id="iYEI_Q_aIxPxglOWvmyR-11" value="" style="line;strokeWidth=3;fillColor=none;align=left;verticalAlign=middle;spacingTop=-1;spacingLeft=3;spacingRight=3;rotatable=0;labelPosition=right;points=[];portConstraint=eastwest;strokeColor=inherit;fontColor=#000000;fontSize=15;fontFamily=Verdana;" vertex="1" parent="iYEI_Q_aIxPxglOWvmyR-7">
          <mxGeometry y="104" width="392" height="2" as="geometry" />
        </mxCell>
        <mxCell id="iYEI_Q_aIxPxglOWvmyR-12" value="&lt;b&gt;descargar&lt;/b&gt;(String url)" style="text;strokeColor=none;fillColor=none;align=left;verticalAlign=top;spacingLeft=4;spacingRight=4;overflow=hidden;rotatable=0;points=[[0,0.5],[1,0.5]];portConstraint=eastwest;whiteSpace=wrap;html=1;fontColor=#000000;fontSize=15;fontFamily=Verdana;" vertex="1" parent="iYEI_Q_aIxPxglOWvmyR-7">
          <mxGeometry y="106" width="392" height="30" as="geometry" />
        </mxCell>
        <mxCell id="iYEI_Q_aIxPxglOWvmyR-13" value="&lt;b&gt;proxy_mi_servidor&lt;/b&gt;(int puerto, String host)" style="text;strokeColor=none;fillColor=none;align=left;verticalAlign=top;spacingLeft=4;spacingRight=4;overflow=hidden;rotatable=0;points=[[0,0.5],[1,0.5]];portConstraint=eastwest;whiteSpace=wrap;html=1;fontColor=#000000;fontSize=15;fontFamily=Verdana;" vertex="1" parent="iYEI_Q_aIxPxglOWvmyR-7">
          <mxGeometry y="136" width="392" height="30" as="geometry" />
        </mxCell>
        <mxCell id="iYEI_Q_aIxPxglOWvmyR-19" value="&lt;b&gt;restringido&lt;/b&gt;(String ruta)" style="text;strokeColor=none;fillColor=none;align=left;verticalAlign=top;spacingLeft=4;spacingRight=4;overflow=hidden;rotatable=0;points=[[0,0.5],[1,0.5]];portConstraint=eastwest;whiteSpace=wrap;html=1;fontColor=#000000;fontSize=15;fontFamily=Verdana;" vertex="1" parent="iYEI_Q_aIxPxglOWvmyR-7">
          <mxGeometry y="166" width="392" height="30" as="geometry" />
        </mxCell>
        <mxCell id="iYEI_Q_aIxPxglOWvmyR-27" value="" style="endArrow=block;dashed=1;endFill=0;endSize=12;html=1;rounded=1;entryX=-0.005;entryY=0.127;entryDx=0;entryDy=0;entryPerimeter=0;exitX=1.001;exitY=0.084;exitDx=0;exitDy=0;exitPerimeter=0;edgeStyle=entityRelationEdgeStyle;" edge="1" parent="1" source="iYEI_Q_aIxPxglOWvmyR-7" target="iYEI_Q_aIxPxglOWvmyR-1">
          <mxGeometry width="160" relative="1" as="geometry">
            <mxPoint x="-1153" y="-674" as="sourcePoint" />
            <mxPoint x="-993" y="-674" as="targetPoint" />
          </mxGeometry>
        </mxCell>
      </root>
    </mxGraphModel>
  </diagram>
</mxfile>
